<mxfile host="app.diagrams.net" modified="2023-02-20T09:29:05.601Z" agent="5.0 (Windows NT 10.0; Win64; x64) AppleWebKit/537.36 (KHTML, like Gecko) Chrome/110.0.0.0 Safari/537.36" etag="fhd_2L1tAL4m_03a_nHg" version="20.2.7" type="github">
  <diagram id="AkVs9okRhs5RFAO6-N5f" name="第 1 页">
    <mxGraphModel dx="1550" dy="863" grid="1" gridSize="10" guides="1" tooltips="1" connect="1" arrows="1" fold="1" page="1" pageScale="1" pageWidth="827" pageHeight="1169" math="0" shadow="0">
      <root>
        <mxCell id="0" />
        <mxCell id="1" parent="0" />
        <mxCell id="8zFl2U6bzmGJpQCOECGy-3" style="edgeStyle=orthogonalEdgeStyle;rounded=0;orthogonalLoop=1;jettySize=auto;html=1;" edge="1" parent="1" source="8zFl2U6bzmGJpQCOECGy-1" target="8zFl2U6bzmGJpQCOECGy-2">
          <mxGeometry relative="1" as="geometry" />
        </mxCell>
        <mxCell id="8zFl2U6bzmGJpQCOECGy-1" value="中移链CMBaaS" style="rounded=0;whiteSpace=wrap;html=1;" vertex="1" parent="1">
          <mxGeometry x="260" y="410" width="120" height="60" as="geometry" />
        </mxCell>
        <mxCell id="8zFl2U6bzmGJpQCOECGy-2" value="天平链" style="rounded=0;whiteSpace=wrap;html=1;" vertex="1" parent="1">
          <mxGeometry x="260" y="550" width="120" height="60" as="geometry" />
        </mxCell>
        <mxCell id="8zFl2U6bzmGJpQCOECGy-8" style="edgeStyle=orthogonalEdgeStyle;rounded=0;orthogonalLoop=1;jettySize=auto;html=1;exitX=0.5;exitY=1;exitDx=0;exitDy=0;entryX=0.5;entryY=0;entryDx=0;entryDy=0;" edge="1" parent="1" source="8zFl2U6bzmGJpQCOECGy-4" target="8zFl2U6bzmGJpQCOECGy-1">
          <mxGeometry relative="1" as="geometry" />
        </mxCell>
        <mxCell id="8zFl2U6bzmGJpQCOECGy-4" value="贵州（平台/转发程序）" style="rounded=0;whiteSpace=wrap;html=1;" vertex="1" parent="1">
          <mxGeometry x="260" y="300" width="120" height="60" as="geometry" />
        </mxCell>
        <mxCell id="8zFl2U6bzmGJpQCOECGy-6" style="edgeStyle=orthogonalEdgeStyle;rounded=0;orthogonalLoop=1;jettySize=auto;html=1;entryX=0.5;entryY=0;entryDx=0;entryDy=0;" edge="1" parent="1" source="8zFl2U6bzmGJpQCOECGy-5" target="8zFl2U6bzmGJpQCOECGy-4">
          <mxGeometry relative="1" as="geometry" />
        </mxCell>
        <mxCell id="8zFl2U6bzmGJpQCOECGy-19" style="edgeStyle=orthogonalEdgeStyle;rounded=0;orthogonalLoop=1;jettySize=auto;html=1;exitX=0;exitY=0.5;exitDx=0;exitDy=0;" edge="1" parent="1" source="8zFl2U6bzmGJpQCOECGy-5">
          <mxGeometry relative="1" as="geometry">
            <mxPoint x="250" y="600" as="targetPoint" />
            <Array as="points">
              <mxPoint x="150" y="210" />
              <mxPoint x="150" y="600" />
            </Array>
          </mxGeometry>
        </mxCell>
        <mxCell id="8zFl2U6bzmGJpQCOECGy-5" value="客户侧（招投标平台）" style="rounded=0;whiteSpace=wrap;html=1;" vertex="1" parent="1">
          <mxGeometry x="260" y="180" width="120" height="60" as="geometry" />
        </mxCell>
        <mxCell id="8zFl2U6bzmGJpQCOECGy-7" value="数据传输" style="text;html=1;strokeColor=none;fillColor=none;align=center;verticalAlign=middle;whiteSpace=wrap;rounded=0;" vertex="1" parent="1">
          <mxGeometry x="340" y="250" width="60" height="30" as="geometry" />
        </mxCell>
        <mxCell id="8zFl2U6bzmGJpQCOECGy-9" value="数据上链存证" style="text;html=1;strokeColor=none;fillColor=none;align=center;verticalAlign=middle;whiteSpace=wrap;rounded=0;" vertex="1" parent="1">
          <mxGeometry x="340" y="370" width="60" height="30" as="geometry" />
        </mxCell>
        <mxCell id="8zFl2U6bzmGJpQCOECGy-10" value="数据上链存证" style="text;html=1;strokeColor=none;fillColor=none;align=center;verticalAlign=middle;whiteSpace=wrap;rounded=0;" vertex="1" parent="1">
          <mxGeometry x="330" y="490" width="60" height="30" as="geometry" />
        </mxCell>
        <mxCell id="8zFl2U6bzmGJpQCOECGy-11" value="" style="endArrow=classic;html=1;rounded=0;" edge="1" parent="1">
          <mxGeometry width="50" height="50" relative="1" as="geometry">
            <mxPoint x="300" y="540" as="sourcePoint" />
            <mxPoint x="300" y="480" as="targetPoint" />
          </mxGeometry>
        </mxCell>
        <mxCell id="8zFl2U6bzmGJpQCOECGy-12" value="存证编码" style="text;html=1;strokeColor=none;fillColor=none;align=center;verticalAlign=middle;whiteSpace=wrap;rounded=0;" vertex="1" parent="1">
          <mxGeometry x="230" y="370" width="60" height="30" as="geometry" />
        </mxCell>
        <mxCell id="8zFl2U6bzmGJpQCOECGy-13" value="" style="endArrow=classic;html=1;rounded=0;" edge="1" parent="1">
          <mxGeometry width="50" height="50" relative="1" as="geometry">
            <mxPoint x="300" y="407.5" as="sourcePoint" />
            <mxPoint x="300" y="362.5" as="targetPoint" />
          </mxGeometry>
        </mxCell>
        <mxCell id="8zFl2U6bzmGJpQCOECGy-15" value="存证编码" style="text;html=1;strokeColor=none;fillColor=none;align=center;verticalAlign=middle;whiteSpace=wrap;rounded=0;" vertex="1" parent="1">
          <mxGeometry x="230" y="500" width="60" height="30" as="geometry" />
        </mxCell>
        <mxCell id="8zFl2U6bzmGJpQCOECGy-17" value="" style="endArrow=classic;html=1;rounded=0;" edge="1" parent="1">
          <mxGeometry width="50" height="50" relative="1" as="geometry">
            <mxPoint x="300" y="295" as="sourcePoint" />
            <mxPoint x="300" y="250" as="targetPoint" />
          </mxGeometry>
        </mxCell>
        <mxCell id="8zFl2U6bzmGJpQCOECGy-18" value="存证编码" style="text;html=1;strokeColor=none;fillColor=none;align=center;verticalAlign=middle;whiteSpace=wrap;rounded=0;" vertex="1" parent="1">
          <mxGeometry x="240" y="260" width="60" height="30" as="geometry" />
        </mxCell>
        <mxCell id="8zFl2U6bzmGJpQCOECGy-20" value="Text" style="text;html=1;strokeColor=none;fillColor=none;align=center;verticalAlign=middle;whiteSpace=wrap;rounded=0;" vertex="1" parent="1">
          <mxGeometry x="380" y="410" width="60" height="30" as="geometry" />
        </mxCell>
        <mxCell id="8zFl2U6bzmGJpQCOECGy-21" value="根据存证编码查证" style="text;html=1;strokeColor=none;fillColor=none;align=center;verticalAlign=middle;whiteSpace=wrap;rounded=0;" vertex="1" parent="1">
          <mxGeometry x="80" y="390" width="60" height="30" as="geometry" />
        </mxCell>
      </root>
    </mxGraphModel>
  </diagram>
</mxfile>
